M48
; DRILL file {KiCad 9.0.7} date 2026-09-15T23:21:02+0530
; FORMAT={-:-/ absolute / metric / decimal}
; #@! TF.CreationDate,2026-09-15T23:21:02+05:30
; #@! TF.GenerationSoftware,Kicad,Pcbnew,9.0.7
; #@! TF.FileFunction,Plated,1,2,PTH
FMAT,2
METRIC
; #@! TA.AperFunction,Plated,PTH,ViaDrill
T1C0.400
; #@! TA.AperFunction,Plated,PTH,ComponentDrill
T2C0.800
; #@! TA.AperFunction,Plated,PTH,ComponentDrill
T3C1.000
; #@! TA.AperFunction,Plated,PTH,ComponentDrill
T4C1.100
%
G90
G05
T1
X11.718Y-68.459
X17.06Y-66.227
X31.5Y-62.95
X35.784Y-70.945
X35.797Y-60.509
X40.5Y-63.65
T2
X8.0Y-20.0
X8.0Y-25.0
X8.0Y-41.0
X12.0Y-67.0
X12.0Y-92.0
X14.5Y-67.0
X14.5Y-92.0
X15.62Y-20.0
X15.62Y-25.0
X15.62Y-41.0
X16.0Y-54.0
X17.0Y-59.0
X17.0Y-74.0
X17.0Y-81.62
X23.62Y-54.0
X24.62Y-59.0
X27.0Y-20.0
X27.0Y-25.0
X29.0Y-54.5
X30.0Y-74.0
X30.0Y-80.0
X31.5Y-54.5
X34.0Y-57.0
X34.0Y-83.0
X34.62Y-20.0
X34.62Y-25.0
X36.5Y-57.0
X36.5Y-83.0
X37.62Y-74.0
X37.62Y-80.0
X41.0Y-59.0
X43.5Y-59.0
X44.0Y-55.0
X46.0Y-20.0
X46.0Y-25.0
X50.0Y-69.0
X51.0Y-61.0
X51.62Y-55.0
X52.0Y-75.0
X52.0Y-82.0
X52.54Y-69.0
X53.0Y-61.0
X53.62Y-20.0
X53.62Y-25.0
X54.5Y-75.0
X55.08Y-69.0
X58.0Y-19.0
X58.0Y-26.0
X59.0Y-71.0
X59.0Y-78.62
X59.62Y-82.0
X60.5Y-19.0
X60.5Y-26.0
X64.0Y-76.0
X64.0Y-82.0
X65.0Y-20.0
X65.0Y-25.0
X65.0Y-29.0
X65.0Y-54.0
X67.5Y-87.0
X70.0Y-87.0
X71.62Y-76.0
X71.62Y-82.0
X72.62Y-20.0
X72.62Y-25.0
X72.62Y-29.0
X72.62Y-54.0
X73.0Y-67.0
X73.5Y-49.0
X74.0Y-35.0
X74.0Y-37.54
X74.0Y-40.08
X74.0Y-42.62
X75.0Y-67.0
X75.38Y-90.0
X75.38Y-95.0
X76.0Y-27.0
X76.0Y-49.0
X76.0Y-76.0
X76.0Y-78.54
X76.0Y-81.08
X76.0Y-83.62
X80.0Y-47.0
X81.5Y-72.0
X81.62Y-35.0
X81.62Y-37.54
X81.62Y-40.08
X81.62Y-42.62
X82.5Y-47.0
X83.0Y-90.0
X83.0Y-95.0
X83.62Y-27.0
X83.62Y-76.0
X83.62Y-78.54
X83.62Y-81.08
X83.62Y-83.62
X84.0Y-55.0
X84.0Y-72.0
X86.0Y-32.0
X86.0Y-47.0
X87.0Y-64.38
X87.0Y-72.0
X88.0Y-24.0
X88.5Y-76.0
X88.5Y-83.62
X89.5Y-88.0
X91.5Y-24.0
X91.62Y-55.0
X92.0Y-88.0
X93.62Y-32.0
X93.62Y-47.0
X94.0Y-16.0
X96.5Y-16.0
T3
X5.0Y-32.0
X5.0Y-34.54
X5.0Y-37.08
X5.0Y-48.0
X5.0Y-50.54
X5.0Y-53.08
X5.0Y-55.62
X5.0Y-58.16
X5.0Y-60.7
X5.0Y-63.24
X5.0Y-71.0
X5.0Y-73.54
X5.0Y-76.08
X5.0Y-78.62
X5.0Y-81.16
X5.0Y-83.7
X5.0Y-86.24
X5.0Y-88.78
X8.0Y-8.0
X8.0Y-10.54
X8.0Y-13.08
X8.0Y-15.62
X18.0Y-89.0
X18.0Y-91.54
X18.0Y-94.08
X22.0Y-65.0
X22.0Y-67.54
X22.0Y-70.08
X22.0Y-76.0
X22.0Y-78.54
X22.0Y-81.08
X27.0Y-8.0
X27.0Y-10.54
X27.0Y-13.08
X27.0Y-15.62
X27.0Y-34.0
X27.0Y-36.54
X27.0Y-39.08
X27.0Y-41.62
X27.0Y-44.16
X27.0Y-46.7
X27.0Y-49.24
X27.0Y-51.78
X33.0Y-89.0
X33.0Y-91.54
X33.0Y-94.08
X43.0Y-34.0
X43.0Y-36.54
X43.0Y-39.08
X43.0Y-41.62
X43.0Y-44.16
X43.0Y-46.7
X43.0Y-49.24
X43.0Y-51.78
X43.0Y-65.0
X43.0Y-67.54
X43.0Y-70.08
X43.0Y-76.0
X43.0Y-78.54
X43.0Y-81.08
X46.0Y-8.0
X46.0Y-10.54
X46.0Y-13.08
X46.0Y-15.62
X48.0Y-89.0
X48.0Y-91.54
X48.0Y-94.08
X56.0Y-34.0
X56.0Y-36.54
X56.0Y-39.08
X56.0Y-41.62
X56.0Y-44.16
X56.0Y-46.7
X56.0Y-49.24
X56.0Y-51.78
X58.0Y-62.0
X61.8Y-34.0
X63.0Y-88.0
X64.0Y-57.0
X64.0Y-59.54
X64.0Y-66.0
X64.0Y-71.0
X65.0Y-8.0
X65.0Y-10.54
X65.0Y-13.08
X65.0Y-15.62
X70.0Y-94.0
X91.0Y-92.0
X94.0Y-10.0
X94.0Y-12.54
X96.0Y-50.0
X96.0Y-52.54
X96.0Y-67.0
X96.0Y-69.54
X96.0Y-72.08
X96.0Y-82.0
X96.0Y-84.54
X97.0Y-20.0
X97.0Y-25.0
X97.0Y-32.0
X97.0Y-59.5
T4
X88.0Y-41.0
X90.54Y-41.0
X93.08Y-41.0
M30
