M48
; SeaNergy Rev A preliminary drill preview - NOT FOR FABRICATION
METRIC,TZ
T01C3.200
T02C1.000
%
T01
X5.000Y5.000
X95.000Y5.000
X5.000Y75.000
X95.000Y75.000
T02
X15.000Y18.000
X28.000Y18.000
X41.000Y18.000
X54.000Y18.000
X67.000Y18.000
X80.000Y18.000
X15.000Y34.000
X28.000Y34.000
X41.000Y34.000
X54.000Y34.000
X67.000Y34.000
X80.000Y34.000
X15.000Y50.000
X28.000Y50.000
X41.000Y50.000
X54.000Y50.000
X67.000Y50.000
X80.000Y50.000
M30
